<?xml version="1.0" standalone="no"?>
<!DOCTYPE svg PUBLIC "-//W3C//DTD SVG 1.1//EN" "http://www.w3.org/Graphics/SVG/1.1/DTD/svg11.dtd" >
<svg xmlns="http://www.w3.org/2000/svg">
<metadata></metadata>
<defs>
<font id="rotis_sans_serifregular" horiz-adv-x="1024" >
<font-face units-per-em="2048" ascent="1638" descent="-410" />
<missing-glyph horiz-adv-x="606" />
<glyph horiz-adv-x="2048" />
<glyph horiz-adv-x="2048" />
<glyph unicode="&#xd;" horiz-adv-x="606" />
<glyph unicode=" "  horiz-adv-x="606" />
<glyph unicode="&#x09;" horiz-adv-x="606" />
<glyph unicode="&#xa0;" horiz-adv-x="606" />
<glyph unicode="!" horiz-adv-x="645" d="M258 0v281h281v-281h-281zM276 1413h244l-16 -993h-211z" />
<glyph unicode="&#x22;" horiz-adv-x="872" d="M109 1413h276l-51 -485h-187zM489 1413h277l-51 -485h-187z" />
<glyph unicode="#" horiz-adv-x="1214" d="M127 387l41 164h143l49 194h-141l41 164h143l99 389h186l-98 -389h162l100 389h186l-100 -389h147l-43 -164h-145l-51 -194h147l-43 -164h-145l-98 -387h-187l98 387h-163l-99 -387h-186l98 387h-141zM498 551h161l52 194h-164z" />
<glyph unicode="$" horiz-adv-x="1175" d="M106 295h265q0 -82 36.5 -131t122.5 -64v547q-74 23 -146.5 50.5t-128.5 69.5t-91 103.5t-35 153.5q0 84 34 148.5t90 108.5t128 66.5t149 22.5v164h121v-164q74 -6 141.5 -27.5t121 -60.5t89 -97.5t44.5 -137.5h-265q-2 37 -8 68.5t-19.5 58t-38 45t-65.5 28.5v-497 q76 -25 153 -53.5t138.5 -72.5t99 -109t37.5 -161q0 -109 -31.5 -178.5t-89 -110t-136.5 -60t-171 -28.5v-186h-121v186q-82 4 -155.5 19.5t-130 51.5t-93 95.5t-45.5 151.5zM399 1034q0 -78 30 -140.5t101 -96.5v450q-78 -20 -104.5 -80.5t-26.5 -132.5zM651 100 q96 20 127 83t31 153q0 88 -38 156.5t-120 105.5v-498z" />
<glyph unicode="%" horiz-adv-x="1820" d="M59 862q0 84 14.5 167t53.5 147.5t103.5 104.5t166.5 40t168 -40t105 -104.5t53 -146.5t14 -168t-14 -169t-53 -147.5t-104.5 -103.5t-168.5 -39q-102 0 -166.5 40t-103.5 104.5t-53.5 146.5t-14.5 168zM233 862q0 -41 3.5 -100.5t18.5 -113.5t49 -93t93 -39t93 39 t50.5 93t19.5 113.5t3 100.5t-3 100.5t-19.5 113.5t-50 93t-93.5 39q-59 0 -93 -39t-49 -93t-18.5 -113.5t-3.5 -100.5zM594 0l475 1298h156l-475 -1298h-156zM1085 436q0 84 14.5 167t53.5 147.5t103.5 104.5t166.5 40t168 -40t105 -104.5t53 -146.5t14 -168t-14 -169 t-53 -147.5t-104.5 -103.5t-168.5 -39q-102 0 -166.5 40t-103.5 104.5t-53.5 146.5t-14.5 168zM1260 436q0 -41 3 -100.5t18 -113.5t49 -93t93 -39q61 0 94 39t49.5 93t19.5 113.5t3 100.5t-3 100.5t-19.5 114t-50 93t-93.5 38.5q-59 0 -93 -38.5t-49 -93t-18 -114 t-3 -100.5z" />
<glyph unicode="&#x26;" horiz-adv-x="1402" d="M94 356q0 156 72 241t225 112v4q-61 16 -111.5 38.5t-85 57.5t-54 85t-19.5 122q0 96 33.5 162.5t90 107.5t133.5 59.5t163 18.5q57 0 116.5 -9t114.5 -28v-164q-96 53 -205 54q-98 0 -144 -61.5t-46 -154.5q0 -70 19.5 -112.5t54 -66t84 -32t110.5 -8.5h283v430l227 136 v-566h258v-145h-258v-320q0 -37 6 -71.5t23.5 -61t46.5 -43t72 -16.5q29 0 56 8t54 19v-158q-41 -8 -82 -12.5t-82 -4.5q-72 0 -130 11.5t-101 40t-66.5 79t-23.5 130.5v399h-279q-78 0 -134 -10.5t-93 -41t-54.5 -83.5t-17.5 -140q0 -117 61.5 -177t178.5 -60 q55 0 103 12.5t98 36.5v-164q-59 -14 -119 -23.5t-121 -9.5q-94 0 -177 19.5t-145.5 64.5t-98.5 118t-36 177z" />
<glyph unicode="'" horiz-adv-x="493" d="M109 1413h276l-51 -485h-187z" />
<glyph unicode="(" horiz-adv-x="681" d="M131 434.5v206.5v206.5t12.5 207t41 190.5t85 161t145.5 116t222 55v-164q-59 -2 -101 -28.5t-71 -68.5t-45.5 -95.5t-25.5 -108.5t-12 -110.5t-5 -98.5q-2 -66 -3 -131t-1 -131t1 -132.5t3 -131.5q2 -43 5 -98.5t12 -110.5t25.5 -108.5t45.5 -95.5t71 -68.5t101 -28.5 v-164q-133 10 -222 55t-145.5 116t-85 162t-41 191.5t-12.5 207z" />
<glyph unicode=")" horiz-adv-x="681" d="M49 -133q59 2 101.5 28.5t71 68.5t45 95.5t25.5 108.5t12 109.5t5 99.5q2 66 3 132t1 132t-1 131.5t-3 130.5q-2 43 -5 98.5t-12 110.5t-25.5 108.5t-45 95.5t-70.5 68.5t-102 28.5v164q133 -10 222 -55t145.5 -116t85 -161t40 -190.5t12.5 -207t1 -206.5t-1 -206.5 t-12.5 -207t-40 -191.5t-85 -162t-145.5 -116t-222 -55v164z" />
<glyph unicode="*" horiz-adv-x="645" d="M12 1034v144h142l10 -4q10 -3 22.5 -7t22.5 -7t14 -3l4 4q-2 0 -10 8.5t-17.5 17.5t-17.5 17l-8 8q-20 27 -37.5 63t-34.5 66l125 72q18 -31 39 -62.5t35 -64.5q8 -14 12 -35.5t9 -38.5h4q2 2 4 13.5t5 25t5 24.5l2 11q14 29 35.5 63.5t38.5 63.5l123 -72 q-16 -31 -34 -65.5t-38 -63.5q-8 -12 -24.5 -26.5t-26.5 -24.5l4 -4q2 0 13 3t23.5 7t23.5 7l12 4h141v-144h-141l-12 3q-11 3 -23.5 6.5t-23.5 7.5t-13 4l-4 -4q10 -10 26.5 -24.5t24.5 -27.5q20 -29 37.5 -61.5t34.5 -63.5l-123 -71q-16 29 -39 61.5t-35 61.5l-2 11 q-2 11 -5 24.5t-5 24.5t-4 13h-4q-4 -18 -8.5 -38.5t-12.5 -34.5q-14 -31 -34.5 -63t-39.5 -60l-125 71q16 31 34 65t38 60q8 12 24.5 26.5t28.5 25.5l-4 4q-4 0 -14 -3t-22.5 -7.5t-22.5 -7.5l-10 -3h-142z" />
<glyph unicode="+" horiz-adv-x="1214" d="M121 430v184h387v383h199v-383h387v-184h-387v-430h-199v430h-387z" />
<glyph unicode="," horiz-adv-x="493" d="M117 -205l37 486h256l-97 -486h-196z" />
<glyph unicode="-" horiz-adv-x="948" d="M94 418v221h762v-221h-762z" />
<glyph unicode="." horiz-adv-x="493" d="M106 0v281h281v-281h-281z" />
<glyph unicode="/" horiz-adv-x="645" d="M-20 -279l469 1838h217l-469 -1838h-217z" />
<glyph unicode="0" horiz-adv-x="1138" d="M74 649q0 121 23.5 241t81 216t152.5 155.5t238 59.5q141 0 236.5 -59.5t153 -155.5t82 -216t24.5 -241t-24.5 -240.5t-82 -216t-152.5 -156t-237 -59.5q-143 0 -238 59.5t-152.5 156t-81 216t-23.5 240.5zM330 649q0 -59 6 -146t29.5 -167t71.5 -137.5t132 -57.5 t132.5 57.5t72 137.5t29.5 167t6 146t-6 146.5t-29.5 167t-72 137t-132.5 57.5t-132 -57.5t-71.5 -137t-29.5 -166.5t-6 -147z" />
<glyph unicode="1" horiz-adv-x="1138" d="M236 965v194l305 162h192v-1321h-233v1114z" />
<glyph unicode="2" horiz-adv-x="1138" d="M98 0v195q47 35 110.5 90t132.5 122.5t135.5 144.5t119.5 152.5t86 147.5t33 131q0 82 -46 133t-132 51q-78 0 -128.5 -47t-50.5 -125h-256q8 90 47 152.5t98.5 100.5t135.5 55.5t160 17.5q86 0 163.5 -21.5t136 -66.5t93.5 -113.5t35 -163.5q0 -127 -59.5 -235.5 t-147.5 -202.5t-192.5 -176t-192.5 -152v-4h596v-186h-877z" />
<glyph unicode="3" horiz-adv-x="1138" d="M80 293h270q0 -78 51.5 -115t122.5 -37q113 0 157 61.5t44 168.5q0 70 -20.5 114.5t-56.5 70.5t-87 35t-112 9v164q57 0 103 8t79 31.5t50 65.5t17 108q0 86 -36.5 133t-124.5 47q-78 0 -121 -33.5t-49 -111.5h-256q0 33 8 65.5t24 59.5q29 51 73 87t96.5 57.5 t109.5 30.5t113 9q82 0 157.5 -18.5t134 -59.5t93 -105.5t34.5 -156.5q0 -104 -50 -186t-159 -107v-4q135 -37 185.5 -117t50.5 -219q0 -102 -35 -173t-95 -115t-141 -63.5t-173 -19.5q-80 0 -159 14.5t-143.5 50.5t-106.5 97.5t-48 153.5z" />
<glyph unicode="4" horiz-adv-x="1138" d="M57 326v161l549 811h264v-796h230v-176h-230v-326h-225v326h-588zM274 502h371v555h-4z" />
<glyph unicode="5" horiz-adv-x="1138" d="M129 295h270q10 -82 61.5 -118t129.5 -36q121 0 167 71t46 181q0 53 -11.5 99.5t-36 81t-65.5 54t-98 19.5q-47 0 -98.5 -24.5t-71.5 -69.5h-238l37 745h733v-176h-514l-18 -383q49 33 107.5 47.5t117.5 14.5q203 0 307.5 -110.5t104.5 -309.5q0 -109 -36 -184.5 t-99.5 -124.5t-148.5 -72t-183 -23q-84 0 -163 14.5t-142.5 50.5t-105.5 97.5t-52 155.5z" />
<glyph unicode="6" horiz-adv-x="1138" d="M135 651q0 135 16.5 257t67.5 214t147.5 145.5t256.5 53.5q76 0 146.5 -18.5t125.5 -57.5t89 -98.5t38 -140.5h-256q0 70 -49 110.5t-115 40.5q-84 0 -127 -54t-61.5 -131t-20.5 -160t-2 -140q61 61 131 88.5t158 27.5q94 0 163.5 -30.5t116 -83.5t68 -129t21.5 -164 q0 -102 -33 -178t-92.5 -126t-140.5 -75t-177 -25q-160 0 -253 56.5t-141 151t-62.5 216t-14.5 250.5zM399 387q0 -47 11.5 -93t36 -82t62.5 -58.5t91 -22.5q57 0 94 22.5t58.5 59.5t31 83t9.5 93t-9.5 92t-32 79t-59.5 54.5t-92 20.5q-59 0 -97 -19.5t-61.5 -53.5t-33 -79 t-9.5 -96z" />
<glyph unicode="7" horiz-adv-x="1138" d="M135 1122v176h852v-174l-467 -1124h-258l467 1122h-594z" />
<glyph unicode="8" horiz-adv-x="1138" d="M117 342q0 135 49 213t176 123q-111 47 -159 116.5t-48 192.5q0 94 37 158.5t98.5 103.5t139 55.5t159.5 16.5q86 0 165 -16.5t139.5 -55.5t95.5 -105.5t35 -164.5q0 -119 -50.5 -187.5t-154.5 -113.5q63 -25 106 -53.5t68.5 -68.5t37 -92t11.5 -122q0 -109 -36 -178.5 t-97.5 -111.5t-143 -58.5t-176.5 -16.5q-96 0 -178 16.5t-143.5 58.5t-96 111.5t-34.5 178.5zM367 379q0 -47 11 -92t35.5 -80t62.5 -55.5t93 -20.5q57 0 96.5 19.5t63 53.5t33.5 79t10 96q0 96 -49 161.5t-154 65.5q-104 0 -153 -65.5t-49 -161.5zM385 969q0 -86 46 -147.5 t138 -61.5q94 0 139.5 59.5t45.5 147.5q0 92 -45 146t-140 54q-86 0 -135 -59t-49 -139z" />
<glyph unicode="9" horiz-adv-x="1138" d="M104 918q0 100 33 175.5t91.5 127t139.5 76t177 24.5q156 0 246 -58.5t136 -153.5t59 -216t13 -244q0 -129 -14 -251t-62.5 -215t-141.5 -149.5t-251 -56.5q-76 0 -146.5 18.5t-125.5 56.5t-89 97.5t-38 143.5h256q0 -68 49 -110t115 -42q76 0 116 57.5t56 135.5t18 161 t2 132q-57 -59 -120.5 -88t-149.5 -29q-96 0 -165.5 29.5t-115 84t-67 129t-21.5 165.5zM360 909q0 -49 9.5 -93t31 -77.5t58.5 -54t92 -20.5t91 21.5t55.5 56t27.5 78.5t8 91q0 43 -9 88t-29.5 82t-55.5 61.5t-86 24.5q-57 0 -94 -22.5t-58.5 -59t-31 -83t-9.5 -93.5z" />
<glyph unicode=":" horiz-adv-x="606" d="M238 0v281h280v-281h-280zM238 694v281h280v-281h-280z" />
<glyph unicode=";" horiz-adv-x="606" d="M213 -205l37 486h258l-98 -486h-197zM244 694v281h280v-281h-280z" />
<glyph unicode="&#x3c;" horiz-adv-x="1214" d="M119 406v186l977 405v-186l-789 -313l789 -312v-186z" />
<glyph unicode="=" horiz-adv-x="1214" d="M121 252v184h973v-184h-973zM121 606v185h973v-185h-973z" />
<glyph unicode="&#x3e;" horiz-adv-x="1214" d="M119 0v186l790 312l-790 313v186l977 -405v-186z" />
<glyph unicode="?" horiz-adv-x="948" d="M115 1182v219q156 35 307 35q80 0 161 -15.5t147.5 -53.5t107.5 -101.5t41 -157.5q0 -74 -30 -132t-74 -107.5t-95 -91.5t-95 -84t-74 -87t-30 -98v-88h-221v147q0 57 27.5 107.5t69.5 94.5t91.5 85t91.5 81t69.5 80t27.5 85q0 47 -18.5 77.5t-49 49t-68.5 26t-77 7.5 q-35 0 -76 -6.5t-83 -16.5t-81 -24.5t-69 -30.5zM225 0v281h281v-281h-281z" />
<glyph unicode="@" horiz-adv-x="2048" d="M219 406q0 184 75 349t201 290.5t292.5 199.5t351.5 74q145 0 279 -45t236.5 -131t163 -209t60.5 -277q0 -88 -22.5 -173t-63.5 -161.5t-101.5 -141t-136.5 -109.5q-59 -33 -122.5 -52.5t-128.5 -19.5q-70 0 -110 38t-38 107q-57 -61 -117.5 -97t-148.5 -36 q-131 0 -202 83t-71 210q0 98 41 215t114 218.5t169 169t207 67.5q86 0 144.5 -38t92.5 -114l46 111h178q-6 -12 -30 -69.5t-56.5 -138.5t-69.5 -172t-68.5 -173t-52 -142.5t-20.5 -76.5q0 -31 16 -43.5t45 -12.5q43 0 85 17.5t77 40.5q123 82 186.5 214t63.5 279 q0 135 -53.5 238.5t-142.5 174.5t-203.5 107.5t-239.5 36.5q-100 0 -197.5 -31.5t-184.5 -89t-161 -134t-127 -165.5t-84 -188.5t-31 -197.5q0 -150 61.5 -259.5t161 -182t227.5 -108.5t263 -36q168 0 317.5 50t280.5 157l55 -47q-27 -27 -57.5 -49.5t-60.5 -43.5 q-123 -78 -259.5 -119.5t-283.5 -41.5q-154 0 -305.5 42t-271 126t-194.5 210.5t-75 299.5zM780 233q0 -70 37 -103.5t105 -33.5q41 0 74.5 14.5t61 39t49 56.5t40.5 64q53 94 93 192.5t63 205.5q6 23 11 48t5 48q0 55 -36 93t-91 38q-51 0 -102.5 -37t-97.5 -95t-85 -132 t-66.5 -147.5t-44 -140.5t-16.5 -110z" />
<glyph unicode="A" horiz-adv-x="1251" d="M0 0l483 1413h289l481 -1413h-249l-123 383h-508l-123 -383h-250zM430 565h393l-194 621h-4z" />
<glyph unicode="B" horiz-adv-x="1138" d="M147 0v1413h435q82 0 154.5 -17.5t128 -56.5t87 -102t31.5 -156q0 -133 -59.5 -206.5t-175.5 -118.5v-4q150 -23 227.5 -115t77.5 -246q0 -115 -36 -190.5t-98.5 -119.5t-149.5 -62.5t-187 -18.5h-435zM387 170h96q63 0 123 9t105 36t71.5 74t26.5 123t-26.5 125 t-71.5 76.5t-104.5 39t-123.5 11.5h-96v-494zM387 834h96q57 0 104.5 7t81 29.5t52 63t18.5 106.5t-18.5 106t-52 61.5t-80.5 28.5t-105 7h-96v-409z" />
<glyph unicode="C" horiz-adv-x="1138" d="M92 713q0 139 26.5 270t90 231.5t171 161t269.5 60.5q96 0 182.5 -25t152 -76t103 -128t37.5 -181h-266q0 106 -45 173t-164 67q-96 0 -154.5 -53.5t-89 -132.5t-40 -168t-9.5 -162q0 -98 14.5 -202t55.5 -189t116.5 -139t198.5 -54q92 0 173 29.5t157 74.5v-211 q-92 -39 -189.5 -60.5t-195.5 -21.5q-166 0 -279.5 59.5t-183 160t-100.5 234.5t-31 282z" />
<glyph unicode="D" horiz-adv-x="1214" d="M154 0v1413h350q184 0 304 -45t190.5 -133t98 -220t27.5 -304q0 -102 -13 -208t-50 -199t-104.5 -165.5t-178.5 -105.5q-66 -23 -135.5 -28t-138.5 -5h-350zM393 170h111q51 0 103 8t98 35q55 35 86.5 95.5t47 131t18.5 142.5t3 129q0 100 -8 196.5t-44 171t-107.5 119.5 t-196.5 45h-111v-1073z" />
<glyph unicode="E" horiz-adv-x="1062" d="M152 0v1413h825v-182h-586v-408h555v-182h-555v-459h602v-182h-841z" />
<glyph unicode="F" horiz-adv-x="985" d="M152 0v1413h798v-182h-559v-408h529v-182h-529v-641h-239z" />
<glyph unicode="G" horiz-adv-x="1251" d="M92 709q0 145 24.5 277t87 231.5t171 159t276.5 59.5q98 0 184.5 -21.5t150 -69t100 -123t36.5 -182.5h-266q0 94 -53 160t-152 66q-104 0 -163.5 -58.5t-88 -144.5t-36 -182.5t-7.5 -171.5q0 -86 10.5 -184.5t46.5 -182.5t102.5 -139.5t178.5 -55.5q23 0 51.5 2.5 t57 8.5t54.5 17t42 28v450h-266v170h506v-717q-41 -33 -97.5 -57t-116 -39.5t-120 -24t-111.5 -8.5q-164 0 -278.5 59.5t-186 159t-104.5 232.5t-33 281z" />
<glyph unicode="H" horiz-adv-x="1290" d="M152 0v1413h239v-586h508v586h240v-1413h-240v645h-508v-645h-239z" />
<glyph unicode="I" horiz-adv-x="530" d="M145 0v1413h240v-1413h-240z" />
<glyph unicode="J" horiz-adv-x="796" d="M0 4v189q51 -18 103.5 -32t105.5 -14q117 0 168 51.5t51 168.5v1046h240v-1032q0 -123 -27 -201t-83 -123t-142 -62.5t-205 -17.5q-111 0 -211 27z" />
<glyph unicode="K" horiz-adv-x="1175" d="M150 0v1413h239v-616h4l455 616h291l-500 -672l539 -741h-291l-494 688h-4v-688h-239z" />
<glyph unicode="L" horiz-adv-x="948" d="M154 0v1413h239v-1231h555v-182h-794z" />
<glyph unicode="M" horiz-adv-x="1744" d="M150 0v1413h327l393 -1128h4l396 1128h325v-1413h-219v1114h-4l-389 -1114h-221l-389 1114h-4v-1114h-219z" />
<glyph unicode="N" horiz-adv-x="1366" d="M152 0v1413h294l545 -1040h4v1040h219v-1413h-268l-571 1092h-4v-1092h-219z" />
<glyph unicode="O" horiz-adv-x="1327" d="M92 707q0 147 25.5 279t90 232.5t175.5 159t281 58.5q168 0 278.5 -58.5t176 -159t91 -232.5t25.5 -279t-25.5 -279.5t-91 -233t-176.5 -159t-278 -58.5q-170 0 -281 58.5t-175.5 159t-90 232.5t-25.5 280zM356 707q0 -78 8.5 -175.5t39 -182.5t92 -143.5t168.5 -58.5 q104 0 165.5 58.5t92 143.5t40 182.5t9.5 175.5t-9.5 175t-40 182t-92 143.5t-165.5 58.5q-106 0 -168 -58.5t-92.5 -143.5t-39 -182.5t-8.5 -174.5z" />
<glyph unicode="P" d="M150 0v1413h364q109 0 200 -17.5t156.5 -62.5t102.5 -123.5t37 -203.5q0 -111 -40 -188t-108.5 -125t-159 -69.5t-188.5 -21.5h-125v-602h-239zM389 772h125q113 0 182.5 58.5t69.5 175.5q0 131 -63.5 184t-188.5 53h-125v-471z" />
<glyph unicode="Q" horiz-adv-x="1366" d="M90 707q0 147 25.5 279t90 232.5t175.5 159t281 58.5q168 0 278.5 -58.5t176 -159t91 -232.5t25.5 -279q0 -68 -6 -139.5t-21.5 -142.5t-44 -136.5t-74.5 -118.5l256 14v-184h-681q-166 0 -277 55.5t-176.5 150.5t-92 224t-26.5 277zM354 707q0 -78 9.5 -171.5t40 -175 t92 -136t166.5 -54.5q104 0 164.5 54.5t92 136t41 175t9.5 171.5t-9.5 175t-40 182t-92 143.5t-165.5 58.5t-166 -58.5t-93.5 -143.5t-40 -182.5t-8.5 -174.5z" />
<glyph unicode="R" horiz-adv-x="1138" d="M147 0v1413h428q94 0 177.5 -17.5t144.5 -60.5t97 -114.5t36 -178.5q0 -147 -72.5 -220.5t-207.5 -106.5v-4q70 -14 112.5 -43t69 -69t41 -90t28.5 -112l86 -397h-243l-66 305q-16 76 -31.5 133.5t-45 94t-81 55t-139.5 18.5h-94v-606h-240zM387 776h94q63 0 118.5 10.5 t96.5 37t65.5 72.5t24.5 120q0 104 -51 165.5t-160 61.5h-188v-467z" />
<glyph unicode="S" horiz-adv-x="1062" d="M70 1071q0 102 43 172t112.5 113t156.5 61.5t173 18.5q88 0 173 -11.5t173 -27.5v-221q-92 37 -173 63.5t-181 26.5q-43 0 -81 -9.5t-67.5 -31t-47 -54t-17.5 -79.5q0 -63 50 -110.5t125 -91.5t162 -89t161.5 -103.5t125 -135.5t50.5 -183q0 -111 -45 -187.5t-119 -125 t-167 -69t-190 -20.5q-104 0 -198 17.5t-193 42.5v248q96 -59 190.5 -98.5t209.5 -39.5q49 0 93 10.5t78.5 34t55 61.5t20.5 91q0 76 -50 132t-124.5 103.5t-162 92.5t-162 100t-124.5 127t-50 172z" />
<glyph unicode="T" horiz-adv-x="948" d="M0 1231v182h948v-182h-354v-1231h-240v1231h-354z" />
<glyph unicode="U" horiz-adv-x="1251" d="M135 432v981h240v-981q0 -127 56 -206t196 -79q137 0 193.5 79t56.5 206v981h239v-981q0 -117 -34.5 -203t-98 -142t-154 -83t-202.5 -27q-111 0 -201 28t-154.5 84t-100.5 142t-36 201z" />
<glyph unicode="V" horiz-adv-x="1175" d="M-35 1413h250l369 -1137h4l375 1137h249l-485 -1413h-289z" />
<glyph unicode="W" horiz-adv-x="1857" d="M47 1413h219l203 -1063h4l361 1063h192l365 -1063h4l198 1063h219l-266 -1413h-250l-364 1044h-4l-359 -1044h-250z" />
<glyph unicode="X" horiz-adv-x="1175" d="M0 0l455 745l-400 668h262l273 -440l264 440h266l-397 -668l455 -745h-271l-317 520l-318 -520h-272z" />
<glyph unicode="Y" horiz-adv-x="1099" d="M-35 1413h273l313 -508l313 508h273l-467 -758v-655h-240v655z" />
<glyph unicode="Z" d="M35 0v182l645 1049h-610v182h888v-182l-645 -1049h676v-182h-954z" />
<glyph unicode="[" horiz-adv-x="720" d="M201 -258v1835h497v-164h-268v-1507h268v-164h-497z" />
<glyph unicode="\" horiz-adv-x="645" d="M-20 1559h217l469 -1838h-217z" />
<glyph unicode="]" horiz-adv-x="720" d="M23 -94h268v1507h-268v164h497v-1835h-497v164z" />
<glyph unicode="^" horiz-adv-x="872" d="M127 1061l246 352h127l245 -352h-165l-144 184l-143 -184h-166z" />
<glyph unicode="_" d="M0 -133h1024v-105h-1024v105z" />
<glyph unicode="`" horiz-adv-x="675" d="M82 1487h246l94 -342h-170z" />
<glyph unicode="a" horiz-adv-x="985" d="M92 233q0 111 54.5 175.5t135 97.5t176 43t179.5 14v96q0 35 -5 68t-20.5 57.5t-42 39t-69.5 14.5q-150 0 -150 -150h-221q0 82 29.5 141.5t80 96.5t118 54t143.5 17q78 0 143.5 -15t112.5 -51t72.5 -94.5t25.5 -142.5v-694h-217v113h-4q-39 -76 -106.5 -106t-147.5 -30 q-59 0 -111.5 16.5t-91.5 48.5t-61.5 80t-22.5 111zM313 254q0 -59 32 -88t89 -29t96 29t62.5 72t34 94t10.5 98q-41 0 -96.5 -7t-106.5 -26.5t-86 -53.5t-35 -89z" />
<glyph unicode="b" d="M121 414v999h227v-555h4q41 68 106.5 103.5t145.5 35.5q104 0 170 -48t102.5 -122.5t50 -165t13.5 -174.5q0 -104 -20.5 -196t-67.5 -162t-127 -111t-197 -41q-209 0 -308 118t-99 319zM348 487q0 -51 2 -112.5t18.5 -113.5t53.5 -88t106 -36q59 0 93 38t51.5 93.5 t21.5 115.5t4 103q0 45 -3 107.5t-19.5 120t-50 97.5t-97.5 40q-59 0 -95 -41t-54.5 -99.5t-24.5 -120t-6 -104.5z" />
<glyph unicode="c" horiz-adv-x="909" d="M78 530q0 106 28.5 192.5t85 148t139.5 94t193 32.5q180 0 275.5 -88t95.5 -268h-242q0 37 -6 73t-22.5 63.5t-45 44t-73.5 16.5q-53 0 -89 -26t-57.5 -64.5t-31 -86t-9.5 -90.5q0 -92 27 -170.5t77 -137t125 -92.5t173 -34q43 0 83 5t81 20v-139q-135 -45 -285 -46 q-262 0 -392 148.5t-130 404.5z" />
<glyph unicode="d" d="M82 487q0 80 14.5 170.5t51 165t101 124.5t167.5 50q78 0 141.5 -35.5t101.5 -103.5h5v555h227v-1413h-227v135h-5q-14 -33 -40.5 -61.5t-60.5 -50t-70.5 -34t-71.5 -12.5q-106 0 -172 48.5t-102 122t-48 163.5t-12 176zM324 487q0 -43 4 -100t21.5 -109.5t50 -88 t92.5 -35.5q55 0 88.5 37.5t52 90t25 109.5t6.5 96q0 43 -5.5 100.5t-23 110t-51 88t-92.5 35.5q-61 0 -95.5 -35.5t-50.5 -87t-19 -109t-3 -102.5z" />
<glyph unicode="e" horiz-adv-x="948" d="M82 539q0 102 24.5 187t75.5 145.5t130 93t188 32.5q186 0 278 -108.5t92 -286.5v-55h-577q0 -78 25.5 -151.5t73.5 -131t115.5 -92.5t151.5 -35q47 0 95.5 11.5t91.5 25.5v-158q-129 -39 -273 -39q-131 0 -224 42t-152.5 118t-87 178.5t-27.5 223.5zM299 684h356 q0 78 -47 123t-125 45q-74 0 -125 -47t-59 -121z" />
<glyph unicode="f" horiz-adv-x="757" d="M45 817v158h178v133q0 92 32 154.5t86 100.5t127 55.5t155 17.5q55 0 113.5 -4.5t113.5 -16.5v-174q-86 35 -178 35q-119 0 -170 -60.5t-51 -173.5v-67h286v-158h-286v-817h-228v817h-178z" />
<glyph unicode="g" d="M82 510q0 80 15.5 166t54 157.5t103 117.5t161.5 46q92 0 148.5 -33.5t103.5 -105.5h4v117h217v-1043q0 -115 -35 -189.5t-96.5 -120.5t-147.5 -64.5t-186 -18.5q-80 0 -154.5 10.5t-150.5 28.5v223q72 -41 143.5 -63.5t157.5 -22.5q143 0 197.5 77t54.5 208v152h-4 q-41 -70 -103.5 -111t-148.5 -41q-104 0 -170 48t-101.5 123t-49 165t-13.5 174zM324 510q0 -43 4 -100.5t21.5 -109.5t50 -88t92.5 -36q53 0 87.5 37t55 90t29 109.5t8.5 97.5q0 43 -7.5 96t-28 101.5t-55 81t-89.5 32.5q-57 0 -91 -32.5t-50.5 -81t-21.5 -101.5t-5 -96z " />
<glyph unicode="h" horiz-adv-x="1062" d="M141 0v1413h228v-620h4q39 94 110.5 149t178.5 55q70 0 119.5 -26.5t81.5 -71.5t47.5 -102.5t15.5 -120.5v-676h-228v557v48t-3 60.5t-10 58.5t-21 42q-12 12 -31 15t-35 3q-61 0 -105 -37.5t-72 -94t-40 -119t-12 -111.5v-422h-228z" />
<glyph unicode="i" horiz-adv-x="530" d="M152 0v975h227v-975h-227zM152 1188v225h227v-225h-227z" />
<glyph unicode="j" horiz-adv-x="530" d="M-150 -293q25 -4 50.5 -6t50.5 -2q76 0 120 23.5t65.5 64.5t26.5 96.5t5 116.5v975h227v-1036q0 -111 -35.5 -188t-98 -124t-147.5 -67.5t-186 -20.5q-20 0 -38.5 2t-39.5 2v164zM168 1188v225h227v-225h-227z" />
<glyph unicode="k" horiz-adv-x="985" d="M137 0v1413h228v-811l315 373h272l-360 -422l393 -553h-272l-344 492h-4v-492h-228z" />
<glyph unicode="l" horiz-adv-x="530" d="M152 0v1413h227v-1413h-227z" />
<glyph unicode="m" horiz-adv-x="1554" d="M141 0v975h228v-150h4q35 82 99.5 127t156.5 45q98 0 161.5 -50t83.5 -144h5q33 86 107.5 140t166.5 54q70 0 120 -26.5t81.5 -71.5t47 -102.5t15.5 -120.5v-676h-227v557v48t-3 60.5t-10.5 58.5t-21.5 42q-12 12 -29.5 15t-35.5 3q-55 0 -93.5 -41t-61 -98t-32.5 -118.5 t-10 -104.5v-422h-227v557v48t-3.5 60.5t-10.5 58.5t-21 42q-12 12 -30.5 15t-35.5 3q-55 0 -93 -41t-60.5 -98t-32.5 -118.5t-10 -104.5v-422h-228z" />
<glyph unicode="n" horiz-adv-x="1062" d="M141 0v975h228v-182h4q39 94 110.5 149t178.5 55q70 0 119.5 -26.5t81.5 -71.5t47.5 -102.5t15.5 -120.5v-676h-228v557v48t-3 60.5t-10 58.5t-21 42q-12 12 -31 15t-35 3q-61 0 -105 -37.5t-72 -94t-40 -119t-12 -111.5v-422h-228z" />
<glyph unicode="o" d="M82 487q0 106 23.5 198.5t75.5 162.5t133 109.5t198 39.5t198 -39.5t133 -109.5t75.5 -162.5t23.5 -198.5t-23.5 -199t-75.5 -162t-133 -109t-198 -40t-198 40t-133 109t-75.5 162t-23.5 199zM324 487q0 -49 4 -110.5t22.5 -114.5t56 -89t105.5 -36t105.5 36t56 89 t22.5 114.5t4 110.5q0 51 -4 111.5t-22.5 114t-56 89.5t-105.5 36t-105.5 -36t-56 -89.5t-22.5 -113.5t-4 -112z" />
<glyph unicode="p" d="M135 -438v1413h227v-135h5q14 33 40.5 61.5t59.5 50t69.5 33.5t71.5 12q106 0 172 -48t103 -122.5t49 -165t12 -174.5q0 -82 -14.5 -172t-52 -164.5t-103 -124t-166.5 -49.5q-78 0 -139 37t-102 103h-5v-555h-227zM362 487q0 -41 5.5 -98t22 -109.5t50 -89t92.5 -36.5 q61 0 96.5 35.5t51.5 87t19 108.5t3 102q0 43 -4 100.5t-21.5 110t-51 88t-93.5 35.5q-55 0 -87.5 -38t-51 -90t-25 -109.5t-6.5 -96.5z" />
<glyph unicode="q" d="M82 487q0 84 12 174.5t48 165t101.5 122.5t172.5 48q35 0 71.5 -12t70.5 -33.5t60.5 -50.5t40.5 -61h5v135h227v-1413h-227v555h-5q-39 -68 -102 -104t-141 -36q-102 0 -167 49.5t-101.5 124t-51 165t-14.5 171.5zM324 487q0 -45 3 -102t19 -108.5t50 -87t96 -35.5 q59 0 92.5 35.5t51 88t23 109.5t5.5 100q0 39 -6.5 96.5t-25 109.5t-52 90t-88.5 38q-59 0 -92 -35.5t-50.5 -88t-21.5 -110t-4 -100.5z" />
<glyph unicode="r" horiz-adv-x="720" d="M137 0v975h228v-180h4q29 51 58.5 89t66 63.5t83 37.5t107.5 12v-237q-174 0 -246.5 -79t-72.5 -253v-428h-228z" />
<glyph unicode="s" horiz-adv-x="757" d="M74 711q0 76 28.5 130t77.5 89t112.5 51t131.5 16q57 0 111.5 -10t109.5 -26v-193q-51 27 -104.5 46.5t-112.5 19.5q-18 0 -45 -5.5t-50.5 -15.5t-40 -27.5t-16.5 -42.5q0 -33 32 -61.5t79 -57t103.5 -61.5t103.5 -75t79 -95t32 -123q0 -82 -31 -137t-82 -90 t-117.5 -50.5t-138.5 -15.5q-135 0 -258 39v197q59 -27 120.5 -43t127.5 -16q23 0 51.5 3t55 12t44 26.5t17.5 46.5t-31 56.5t-78 58t-101.5 65.5t-101.5 78t-77.5 94t-30.5 117z" />
<glyph unicode="t" horiz-adv-x="757" d="M41 817v158h190v231l228 137v-368h289v-158h-289v-461q0 -43 4 -83t19.5 -70.5t46 -48t83.5 -17.5q27 0 52.5 5t52.5 12v-160q-47 -8 -93 -12.5t-94 -4.5q-150 0 -224.5 58.5t-74.5 210.5v571h-190z" />
<glyph unicode="u" horiz-adv-x="1062" d="M139 299v676h228v-557v-46t2 -61.5t9 -60.5t23 -41q12 -12 31 -15.5t35 -3.5q61 0 104 38t71 94.5t41 119t13 111.5v422h228v-975h-228v182h-4q-37 -94 -110.5 -149.5t-178.5 -55.5q-70 0 -120 27t-81.5 71t-47 102.5t-15.5 121.5z" />
<glyph unicode="v" horiz-adv-x="909" d="M-2 975h238l217 -668h4l219 668h237l-348 -975h-221z" />
<glyph unicode="w" horiz-adv-x="1402" d="M68 975h208l144 -668h4l201 668h155l201 -668h4l143 668h209l-219 -975h-227l-186 623h-5l-186 -623h-227z" />
<glyph unicode="x" horiz-adv-x="985" d="M0 0l369 508l-322 467h260l187 -266l186 266h260l-315 -457l362 -518h-262l-231 334l-234 -334h-260z" />
<glyph unicode="y" horiz-adv-x="909" d="M-2 975h238l225 -658h4l211 658h237l-485 -1413h-209l139 426z" />
<glyph unicode="z" horiz-adv-x="796" d="M35 0v158l446 659h-420v158h682v-158l-446 -659h465v-158h-727z" />
<glyph unicode="{" horiz-adv-x="1138" d="M289 440v49q45 14 86 38t71.5 55.5t49 73.5t18.5 94q0 49 -11 97t-22 95q-10 49 -17 97t-7 100q0 78 42 141t105.5 108.5t139 71t145.5 27.5v-51q-100 -25 -159.5 -99.5t-59.5 -179.5q0 -86 14 -169t14 -167q0 -74 -27.5 -129t-71.5 -98t-101.5 -74t-116.5 -55 q57 -27 114.5 -58.5t102.5 -72.5t72.5 -96.5t27.5 -128.5q0 -84 -14 -167t-14 -169q0 -104 59 -179t160 -100v-51q-70 2 -145.5 27.5t-139 70.5t-105.5 108.5t-42 141.5q0 51 7 99.5t17 97.5t21.5 96t11.5 96t-19.5 90t-50 74t-71.5 57.5t-84 38.5z" />
<glyph unicode="|" horiz-adv-x="681" d="M293 -377v2083h100v-2083h-100z" />
<glyph unicode="}" horiz-adv-x="1138" d="M256 -506q100 25 159.5 99.5t59.5 179.5q0 86 -14.5 169t-14.5 167q0 74 28 129t73 97t101.5 72.5t115.5 57.5q-61 25 -117.5 56.5t-101.5 73.5t-72 97.5t-27 128.5q0 84 14.5 167t14.5 169q0 104 -59.5 179t-159.5 100v51q70 -2 145.5 -27.5t139 -71t105.5 -108.5 t42 -141q0 -51 -7 -99.5t-17 -97.5q-10 -47 -21.5 -95t-11.5 -97q0 -51 18.5 -93.5t49 -74t71.5 -55t86 -38.5v-49q-43 -14 -84 -38.5t-71.5 -57.5t-50 -74t-19.5 -90t11 -96t22 -96q10 -49 17 -97.5t7 -99.5q0 -78 -42 -141.5t-105.5 -108.5t-139 -70.5t-145.5 -27.5v51z " />
<glyph unicode="~" horiz-adv-x="1251" d="M133 350v187q0 39 10.5 74.5t30 64.5t51 46t74.5 17q59 0 100 -19.5t90 -43.5l312 -154q20 -12 52 -28.5t54 -16.5q29 0 34 24.5t5 47.5v145h170v-159q0 -100 -41 -166t-153 -66q-45 0 -93.5 22.5t-87.5 39.5l-305 149q-16 8 -45 23.5t-47 15.5q-16 0 -24.5 -11.5 t-12.5 -26.5t-4 -31.5v-26.5v-107h-170z" />
<glyph unicode="&#xa1;" horiz-adv-x="645" d="M106 854v281h281v-281h-281zM125 -279l16 994h211l17 -994h-244z" />
<glyph unicode="&#xa2;" horiz-adv-x="985" d="M68 528q0 98 22.5 181.5t70.5 144.5t122.5 99t177.5 44v170h102v-170q76 -10 141.5 -35.5t113.5 -69.5t75 -106.5t27 -144.5h-234q0 37 -4 76t-17.5 73.5t-38 62.5t-63.5 42v-795q45 -14 103 -14q55 0 114.5 12.5t110.5 36.5v-96q-78 -33 -160 -47.5t-168 -14.5v-192 h-102v192q-111 18 -185.5 67.5t-120.5 122.5t-66.5 165t-20.5 196zM324 557q0 -121 27.5 -218t109.5 -183v739q-49 -16 -77 -55t-41 -87t-16 -100.5t-3 -95.5z" />
<glyph unicode="&#xa3;" d="M66 598v145h151v306q0 90 34 150.5t90 97t130 52t152 15.5q74 0 147.5 -19.5t133 -58.5t97 -100.5t39.5 -143.5h-256q-12 74 -48 114t-118 40q-53 0 -85.5 -15.5t-52 -43t-27 -65.5t-7.5 -83v-246h295v-145h-295v-399h549v-199h-778v598h-151z" />
<glyph unicode="&#xa4;" horiz-adv-x="1257" d="M111 358q35 31 70.5 67t70.5 67q-37 59 -54.5 118.5t-17.5 114.5t16.5 116.5t55.5 116.5q-72 70 -141 136l116 116l140 -137q59 39 121.5 55.5t115.5 16.5q55 0 118.5 -17.5t117.5 -54.5l141 137l115 -116q-72 -66 -142 -136q41 -61 56.5 -121.5t15.5 -111.5 q0 -55 -16.5 -113.5t-55.5 -119.5q35 -31 71 -67t71 -67l-115 -116l-141 137q-109 -72 -236 -72q-53 0 -115.5 16.5t-121.5 55.5l-140 -137zM344 727q0 -53 20.5 -100t56.5 -82t83 -55.5t100 -20.5t100.5 20.5t82 55.5t55 82t20.5 100q0 55 -22.5 102.5t-58.5 81t-82 53 t-95 19.5q-55 0 -102 -20.5t-83 -55.5t-55.5 -82t-19.5 -98z" />
<glyph unicode="&#xa5;" horiz-adv-x="1099" d="M-37 1413h273l315 -508l311 508h273l-465 -758h231v-116h-231v-107h231v-117h-231v-315h-240v315h-231v117h231v107h-231v116h231z" />
<glyph unicode="&#xa6;" horiz-adv-x="606" d="M205 -279v736h198v-736h-198zM205 823v736h198v-736h-198z" />
<glyph unicode="&#xa7;" d="M66 727q0 78 37.5 138.5t99.5 105.5q-41 37 -65.5 82t-24.5 102q0 80 38.5 134t98 86t132.5 46.5t138 14.5q92 0 179 -14.5t173 -39.5v-186q-86 37 -170 58.5t-178 21.5q-18 0 -46.5 -4t-55.5 -15.5t-45.5 -29t-18.5 -41.5q0 -47 45.5 -79t112 -58.5t144 -54t144 -65.5 t112 -91t45.5 -131q0 -72 -34 -136.5t-98 -101.5q49 -45 73 -93t24 -118q0 -80 -45 -134t-110.5 -86t-143.5 -46.5t-142 -14.5q-172 0 -344 54v188q86 -33 173 -57.5t180 -24.5q25 0 56.5 3t61 13.5t49 30t19.5 54.5q0 45 -45 77.5t-113.5 63.5t-148.5 61.5t-148.5 70.5 t-113.5 92t-45 124zM256 807q0 -37 39 -69.5t92 -59.5t105.5 -47.5t80.5 -32.5q39 -14 77 -31.5t75 -38.5q16 23 30.5 48.5t14.5 54.5q0 31 -38 63.5t-88 60t-100 48t-75 31.5q-41 16 -82 33.5t-80 35.5q-20 -18 -35.5 -42.5t-15.5 -53.5z" />
<glyph unicode="&#xa8;" horiz-adv-x="675" d="M0 1167v228h252v-228h-252zM422 1167v228h252v-228h-252z" />
<glyph unicode="&#xa9;" d="M31 954q0 98 37.5 186.5t103.5 154t154 103.5t186 38t186 -38t154 -103.5t103.5 -154t37.5 -186.5q0 -100 -37.5 -187t-103.5 -152.5t-153 -103.5t-187 -38q-98 0 -186 38t-154 103.5t-103.5 152.5t-37.5 187zM102 954q0 -84 33 -158.5t88.5 -130t130 -88t158.5 -32.5 t158.5 32.5t130 88t88.5 130t33 158.5t-33 159t-88.5 130t-130 88t-158.5 33t-158.5 -33t-130 -88t-88.5 -130t-33 -159zM256 963q0 57 22.5 107t60.5 87t89 58.5t109 21.5q61 0 105 -21.5t89 -58.5l-53 -67q-31 27 -64.5 45t-76.5 18q-39 0 -74 -15.5t-60.5 -41t-41 -60.5 t-15.5 -73q0 -39 13.5 -74t38 -60.5t58 -41t72.5 -15.5q51 0 82 14.5t68 47.5l53 -66q-43 -43 -88 -61.5t-106 -18.5q-57 0 -108.5 21.5t-89.5 58.5t-60.5 87t-22.5 108z" />
<glyph unicode="&#xaa;" horiz-adv-x="569" d="M63 723q0 57 30 93t75 55.5t97 25.5t100 6v55q0 39 -14.5 69t-61.5 30q-39 0 -59.5 -22.5t-20.5 -61.5h-125q0 47 17.5 79.5t46 52t66.5 29t79 9.5q74 0 130 -35t56 -119v-395h-114v63h-5q-20 -41 -59 -57t-80 -16q-66 0 -112 35.5t-46 103.5zM186 733q0 -31 18.5 -47 t47.5 -16q31 0 52.5 15t34.5 40t19.5 53t6.5 53q-23 0 -53.5 -4t-58.5 -14t-47.5 -29.5t-19.5 -50.5z" />
<glyph unicode="&#xab;" horiz-adv-x="833" d="M63 518l146 395h211l-129 -395l129 -395h-211zM406 518l145 395h211l-129 -395l129 -395h-211z" />
<glyph unicode="&#xac;" horiz-adv-x="1214" d="M119 430v184h979v-538h-199v354h-780z" />
<glyph unicode="&#xad;" horiz-adv-x="948" d="M94 418v221h762v-221h-762z" />
<glyph unicode="&#xae;" d="M31 954q0 98 37.5 186.5t103.5 154t154 103.5t186 38t186 -38t154 -103.5t103.5 -154t37.5 -186.5q0 -100 -37.5 -187t-103.5 -152.5t-153 -103.5t-187 -38q-98 0 -186 38t-154 103.5t-103.5 152.5t-37.5 187zM102 954q0 -84 33 -158.5t88.5 -130t130 -88t158.5 -32.5 t158.5 32.5t130 88t88.5 130t33 158.5t-33 159t-88.5 130t-130 88t-158.5 33t-158.5 -33t-130 -88t-88.5 -130t-33 -159zM330 713v508h170q43 0 80.5 -6.5t65.5 -25t44.5 -50t16.5 -82.5q0 -55 -21.5 -79t-67.5 -46l95 -219h-103l-78 205h-110v-205h-92zM422 999h110 q31 0 54.5 15.5t23.5 50.5q0 39 -26.5 53.5t-59.5 14.5h-102v-134z" />
<glyph unicode="&#xaf;" horiz-adv-x="675" d="M25 1145v158h626v-158h-626z" />
<glyph unicode="&#xb0;" horiz-adv-x="819" d="M172 1083q0 49 19.5 92.5t51 75t74.5 51t93 19.5q49 0 92 -19.5t75.5 -51t51 -75t18.5 -92.5t-18.5 -92t-51 -75.5t-75.5 -51t-92 -18.5t-92.5 18.5t-75 51t-51 75.5t-19.5 92zM289 1083q0 -51 33.5 -85.5t87.5 -34.5q51 0 85.5 34.5t34.5 85.5t-34.5 86t-85.5 35 q-53 0 -87 -34.5t-34 -86.5z" />
<glyph unicode="&#xb1;" horiz-adv-x="1124" d="M76 -96h973v-185h-973v185zM76 430v184h387v383h199v-383h387v-184h-387v-430h-199v430h-387z" />
<glyph unicode="&#xb2;" horiz-adv-x="774" d="M68 416v133q47 37 118.5 102.5t138 142t113.5 155.5t47 141q0 55 -30.5 89.5t-89.5 34.5q-53 0 -87 -31.5t-34 -84.5h-174q6 61 31.5 104t66.5 68.5t92 38t109 12.5q57 0 110 -15.5t93 -46t63.5 -77.5t23.5 -111q0 -86 -39.5 -160.5t-100 -139t-130.5 -120t-131 -104.5 v-4h406v-127h-596z" />
<glyph unicode="&#xb3;" horiz-adv-x="774" d="M55 616h183q0 -53 34.5 -78.5t83.5 -25.5q78 0 108 43t30 115q0 49 -14.5 79.5t-39 48t-59.5 23.5t-76 6v113q78 0 124 27.5t46 117.5q0 59 -25.5 91t-84.5 32q-53 0 -82 -23.5t-33 -76.5h-174q0 23 5 46.5t17 39.5q39 72 115 99.5t149 27.5q55 0 107.5 -13.5t92.5 -41 t63.5 -71.5t23.5 -108q0 -72 -34.5 -128t-106.5 -72v-2q92 -27 126 -80.5t34 -151.5q0 -70 -23.5 -118t-64.5 -78.5t-96.5 -44t-118.5 -13.5q-55 0 -108.5 10.5t-96.5 35t-72 66.5t-33 105z" />
<glyph unicode="&#xb4;" horiz-adv-x="675" d="M252 1145l94 342h246l-170 -342h-170z" />
<glyph unicode="&#xb5;" horiz-adv-x="1179" d="M139 -438v1413h228v-557q0 -41 2 -85t15 -82t43 -62.5t83 -24.5q57 0 91 46t51.5 109.5t22.5 129t5 104.5v422h227v-682q0 -41 4 -74t17.5 -55.5t40 -33.5t71.5 -11v-123q-33 -8 -64.5 -13.5t-62.5 -5.5q-92 0 -146 35t-79 127q-35 -72 -90 -117t-141 -45q-51 0 -90 23 v-438h-228z" />
<glyph unicode="&#xb6;" horiz-adv-x="1138" d="M190 918q0 154 64.5 250t166 150t228.5 74.5t252 20.5h141v-80h-143v-1773h-78v1771l-100 -10v-1761h-76v895q-94 18 -177 53t-144.5 91t-97.5 135t-36 184z" />
<glyph unicode="&#xb7;" horiz-adv-x="493" d="M121 524v252h252v-252h-252z" />
<glyph unicode="&#xb8;" horiz-adv-x="675" d="M201 -354q33 -23 65.5 -38.5t71.5 -15.5t64.5 26t25.5 65q0 31 -13.5 51t-35 33.5t-48 19.5t-52.5 6q-12 0 -25.5 -3t-26.5 -5l58 248h116l-39 -166q8 0 14.5 1t14.5 1q84 0 141.5 -50t57.5 -136q0 -104 -68.5 -156.5t-167.5 -52.5q-47 0 -79.5 10t-73.5 33v129z" />
<glyph unicode="&#xb9;" horiz-adv-x="774" d="M160 1077v133l209 111h129v-905h-158v764z" />
<glyph unicode="&#xba;" horiz-adv-x="569" d="M47 862q0 61 12.5 112.5t40 89.5t73.5 58.5t112 20.5t111.5 -20.5t73.5 -58.5t40 -89.5t12 -112.5q0 -59 -12 -110.5t-40 -88t-74 -58t-111 -21.5q-66 0 -112 21.5t-73.5 58t-40 88t-12.5 110.5zM180 862q0 -27 3 -60.5t13.5 -62t32 -49t56.5 -20.5q37 0 57 20.5t30.5 49 t13.5 62t3 60.5t-3 60.5t-13.5 63.5t-30.5 50.5t-57 20.5q-35 0 -56.5 -20.5t-32 -50.5t-13.5 -63.5t-3 -60.5z" />
<glyph unicode="&#xbb;" horiz-adv-x="833" d="M76 123l129 395l-129 395h211l145 -395l-145 -395h-211zM418 123l129 395l-129 395h211l145 -395l-145 -395h-211z" />
<glyph unicode="&#xbc;" horiz-adv-x="1820" d="M104 1077v133l209 111h129v-905h-157v764zM526 0l475 1298h156l-475 -1298h-156zM1008 223v111l372 555h181v-545h155v-121h-155v-223h-154v223h-399zM1155 344h252v379h-2z" />
<glyph unicode="&#xbd;" horiz-adv-x="1820" d="M104 1077v133l209 111h129v-905h-157v764zM522 0l475 1298h158l-477 -1298h-156zM1077 0v133q47 37 119 102.5t138.5 142.5t113.5 155.5t47 140.5q0 55 -30.5 90t-90.5 35q-53 0 -87 -32t-34 -85h-174q6 61 32 104t67 69t92 38t108 12t110.5 -15.5t93.5 -46t63.5 -77.5 t23.5 -111q0 -86 -40 -160.5t-100.5 -139t-130 -120t-130.5 -104.5v-4h405v-127h-596z" />
<glyph unicode="&#xbe;" horiz-adv-x="1820" d="M70 616h182q0 -53 35 -78.5t84 -25.5q78 0 107.5 43t29.5 115q0 49 -14.5 79.5t-39 48t-59.5 23.5t-76 6v113q78 0 124 27.5t46 117.5q0 59 -25.5 91t-84.5 32q-53 0 -82 -23.5t-33 -76.5h-174q0 61 28.5 102t71.5 65.5t93.5 35t93.5 10.5q55 0 107.5 -13.5t92 -41 t63.5 -71.5t24 -108q0 -72 -35 -128t-107 -72v-2q92 -27 126 -80.5t34 -151.5q0 -70 -23.5 -118t-64.5 -78.5t-96.5 -44t-118.5 -13.5q-55 0 -108.5 10.5t-96.5 35t-71.5 66.5t-32.5 105zM608 0l475 1298h156l-475 -1298h-156zM1008 223v111l372 555h181v-545h155v-121h-155 v-223h-154v223h-399zM1155 344h252v379h-2z" />
<glyph unicode="&#xbf;" horiz-adv-x="948" d="M66 27q0 74 29.5 132t73.5 107t95 91t95 84t74 87t30 99v88h223v-148q0 -59 -27.5 -108t-70.5 -93t-91 -84t-91.5 -80t-71 -81t-27.5 -86q0 -47 18.5 -78t49.5 -49.5t68.5 -25.5t78.5 -7q35 0 76 6t83 16.5t81 25t69 30.5v-219q-156 -35 -309 -35q-80 0 -160.5 15.5 t-147.5 53t-107.5 101t-40.5 158.5zM438 854v281h281v-281h-281z" />
<glyph unicode="&#xc0;" horiz-adv-x="1251" d="M0 0l483 1413h289l481 -1413h-249l-123 383h-508l-123 -383h-250zM371 1925h245l95 -342h-170zM430 565h393l-194 621h-4z" />
<glyph unicode="&#xc1;" horiz-adv-x="1251" d="M0 0l483 1413h289l481 -1413h-249l-123 383h-508l-123 -383h-250zM430 565h393l-194 621h-4zM541 1583l94 342h246l-170 -342h-170z" />
<glyph unicode="&#xc2;" horiz-adv-x="1251" d="M0 0l483 1413h289l481 -1413h-249l-123 383h-508l-123 -383h-250zM317 1583l199 305h221l199 -305h-166l-143 172l-144 -172h-166zM430 565h393l-194 621h-4z" />
<glyph unicode="&#xc3;" horiz-adv-x="1251" d="M0 0l483 1413h289l481 -1413h-249l-123 383h-508l-123 -383h-250zM344 1602q0 39 1 87t13.5 91t40 72.5t82.5 29.5q33 0 74 -21.5t80 -46t70.5 -46t48.5 -21.5q14 0 22 14.5t10 34t2 38.5v30h121q0 -31 -1 -61.5t-3 -61.5q-4 -35 -11 -63.5t-21.5 -50t-39 -33 t-63.5 -11.5q-41 0 -82 19.5t-77 43t-64.5 43t-46.5 19.5q-16 0 -23.5 -13.5t-9.5 -30.5t-2 -35.5v-26.5h-121zM430 565h393l-194 621h-4z" />
<glyph unicode="&#xc4;" horiz-adv-x="1251" d="M0 0l483 1413h289l481 -1413h-249l-123 383h-508l-123 -383h-250zM289 1606v227h252v-227h-252zM430 565h393l-194 621h-4zM711 1606v227h252v-227h-252z" />
<glyph unicode="&#xc5;" horiz-adv-x="1251" d="M0 0l483 1413h289l481 -1413h-249l-123 383h-508l-123 -383h-250zM420 1790q0 43 16.5 81t45 65.5t66.5 44t79 16.5q43 0 79.5 -16.5t65.5 -44t45.5 -65.5t16.5 -81t-16.5 -80t-45.5 -65.5t-65.5 -45t-79.5 -16.5q-41 0 -79 16.5t-66.5 45t-45 65.5t-16.5 80zM430 565 h393l-194 621h-4zM539 1790q0 -37 25.5 -62.5t62.5 -25.5t62.5 25.5t25.5 62.5t-25.5 62.5t-62.5 25.5t-62.5 -25.5t-25.5 -62.5z" />
<glyph unicode="&#xc6;" horiz-adv-x="1781" d="M2 0l799 1413h899v-182h-547l39 -488h477v-182h-463l31 -379h479v-182h-696l-45 561h-410l-291 -561h-272zM662 743h296l-36 498h-4z" />
<glyph unicode="&#xc7;" horiz-adv-x="1138" d="M92 713q0 139 26.5 270t90 231.5t171 161t269.5 60.5q96 0 182.5 -25t152 -76t103 -128t37.5 -181h-266q0 106 -45 173t-164 67q-96 0 -154.5 -53.5t-89 -132.5t-40 -168t-9.5 -162q0 -98 14.5 -202t55.5 -189t116.5 -139t198.5 -54q92 0 173 29.5t157 74.5v-211 q-92 -39 -189.5 -60.5t-195.5 -21.5h-23.5t-21.5 3l-27 -113q8 0 14.5 1t14.5 1q84 0 141.5 -50t57.5 -136q0 -104 -68.5 -156.5t-167.5 -52.5q-47 0 -79.5 10t-73.5 33v129q33 -23 65.5 -38.5t71.5 -15.5t64.5 26t25.5 65q0 31 -13.5 51t-35 33.5t-48 19.5t-53.5 6 q-12 0 -25 -3t-26 -5l49 209q-121 29 -204.5 96.5t-135 162.5t-74 213t-22.5 247z" />
<glyph unicode="&#xc8;" horiz-adv-x="1062" d="M152 0v1413h825v-182h-586v-408h555v-182h-555v-459h602v-182h-841zM307 1925h246l94 -342h-170z" />
<glyph unicode="&#xc9;" horiz-adv-x="1062" d="M152 0v1413h825v-182h-586v-408h555v-182h-555v-459h602v-182h-841zM467 1583l94 342h246l-170 -342h-170z" />
<glyph unicode="&#xca;" horiz-adv-x="1062" d="M152 0v1413h825v-182h-586v-408h555v-182h-555v-459h602v-182h-841zM244 1583l198 305h222l198 -305h-166l-143 172l-143 -172h-166z" />
<glyph unicode="&#xcb;" horiz-adv-x="1062" d="M152 0v1413h825v-182h-586v-408h555v-182h-555v-459h602v-182h-841zM225 1606v227h252v-227h-252zM647 1606v227h252v-227h-252z" />
<glyph unicode="&#xcc;" horiz-adv-x="530" d="M10 1925h246l94 -342h-170zM145 0v1413h240v-1413h-240z" />
<glyph unicode="&#xcd;" horiz-adv-x="530" d="M145 0v1413h240v-1413h-240zM180 1583l94 342h246l-170 -342h-170z" />
<glyph unicode="&#xce;" horiz-adv-x="530" d="M-43 1583l199 305h221l198 -305h-165l-144 172l-143 -172h-166zM145 0v1413h240v-1413h-240z" />
<glyph unicode="&#xcf;" horiz-adv-x="530" d="M-72 1606v227h252v-227h-252zM145 0v1413h240v-1413h-240zM350 1606v227h252v-227h-252z" />
<glyph unicode="&#xd0;" horiz-adv-x="1214" d="M0 670v129h154v614h350q184 0 304 -45t190.5 -133t98 -220t27.5 -304q0 -102 -13 -208t-50 -199t-104.5 -165.5t-178.5 -105.5q-66 -23 -135.5 -28t-138.5 -5h-350v670h-154zM393 170h111q51 0 103 8t98 35q55 35 86.5 95.5t47 131t18.5 142.5t3 129q0 100 -8 196.5 t-44 171t-107.5 119.5t-196.5 45h-111v-444h256v-129h-256v-500z" />
<glyph unicode="&#xd1;" horiz-adv-x="1366" d="M152 0v1413h294l545 -1040h4v1040h219v-1413h-268l-571 1092h-4v-1092h-219zM401 1602q0 39 1 87t13.5 91t41 72.5t82.5 29.5q33 0 73.5 -21.5t79.5 -46t72 -46t47 -21.5q16 0 23.5 14.5t10.5 34t2 38.5t-1 30h121v-61.5t-4 -61.5q-4 -70 -32 -114t-104 -44 q-41 0 -81.5 19.5t-76.5 43t-65 43t-47 19.5q-16 0 -23.5 -13.5t-10.5 -30.5t-2 -35.5t1 -26.5h-121z" />
<glyph unicode="&#xd2;" horiz-adv-x="1327" d="M92 707q0 147 25.5 279t90 232.5t175.5 159t281 58.5q168 0 278.5 -58.5t176 -159t91 -232.5t25.5 -279t-25.5 -279.5t-91 -233t-176.5 -159t-278 -58.5q-170 0 -281 58.5t-175.5 159t-90 232.5t-25.5 280zM356 707q0 -78 8.5 -175.5t39 -182.5t92 -143.5t168.5 -58.5 q104 0 165.5 58.5t92 143.5t40 182.5t9.5 175.5t-9.5 175t-40 182t-92 143.5t-165.5 58.5q-106 0 -168 -58.5t-92.5 -143.5t-39 -182.5t-8.5 -174.5zM408 1925h245l95 -342h-170z" />
<glyph unicode="&#xd3;" horiz-adv-x="1327" d="M92 707q0 147 25.5 279t90 232.5t175.5 159t281 58.5q168 0 278.5 -58.5t176 -159t91 -232.5t25.5 -279t-25.5 -279.5t-91 -233t-176.5 -159t-278 -58.5q-170 0 -281 58.5t-175.5 159t-90 232.5t-25.5 280zM356 707q0 -78 8.5 -175.5t39 -182.5t92 -143.5t168.5 -58.5 q104 0 165.5 58.5t92 143.5t40 182.5t9.5 175.5t-9.5 175t-40 182t-92 143.5t-165.5 58.5q-106 0 -168 -58.5t-92.5 -143.5t-39 -182.5t-8.5 -174.5zM578 1583l94 342h246l-170 -342h-170z" />
<glyph unicode="&#xd4;" horiz-adv-x="1327" d="M92 707q0 147 25.5 279t90 232.5t175.5 159t281 58.5q168 0 278.5 -58.5t176 -159t91 -232.5t25.5 -279t-25.5 -279.5t-91 -233t-176.5 -159t-278 -58.5q-170 0 -281 58.5t-175.5 159t-90 232.5t-25.5 280zM354 1583l199 305h221l199 -305h-166l-143 172l-144 -172h-166z M356 707q0 -78 8.5 -175.5t39 -182.5t92 -143.5t168.5 -58.5q104 0 165.5 58.5t92 143.5t40 182.5t9.5 175.5t-9.5 175t-40 182t-92 143.5t-165.5 58.5q-106 0 -168 -58.5t-92.5 -143.5t-39 -182.5t-8.5 -174.5z" />
<glyph unicode="&#xd5;" horiz-adv-x="1327" d="M92 707q0 147 25.5 279t90 232.5t175.5 159t281 58.5q168 0 278.5 -58.5t176 -159t91 -232.5t25.5 -279t-25.5 -279.5t-91 -233t-176.5 -159t-278 -58.5q-170 0 -281 58.5t-175.5 159t-90 232.5t-25.5 280zM356 707q0 -78 8.5 -175.5t39 -182.5t92 -143.5t168.5 -58.5 q104 0 165.5 58.5t92 143.5t40 182.5t9.5 175.5t-9.5 175t-40 182t-92 143.5t-165.5 58.5q-106 0 -168 -58.5t-92.5 -143.5t-39 -182.5t-8.5 -174.5zM381 1602q0 39 1 87t13.5 91t40 72.5t82.5 29.5q33 0 74 -21.5t80 -46t70.5 -46t48.5 -21.5q14 0 22 14.5t10 34t2 38.5v30 h121q0 -31 -1 -61.5t-3 -61.5q-4 -35 -11 -63.5t-21.5 -50t-39 -33t-63.5 -11.5q-41 0 -82 19.5t-77 43t-64.5 43t-46.5 19.5q-14 0 -21.5 -13.5t-10.5 -30.5t-3 -35.5v-26.5h-121z" />
<glyph unicode="&#xd6;" horiz-adv-x="1327" d="M92 707q0 147 25.5 279t90 232.5t175.5 159t281 58.5q168 0 278.5 -58.5t176 -159t91 -232.5t25.5 -279t-25.5 -279.5t-91 -233t-176.5 -159t-278 -58.5q-170 0 -281 58.5t-175.5 159t-90 232.5t-25.5 280zM326 1606v227h252v-227h-252zM356 707q0 -78 8.5 -175.5 t39 -182.5t92 -143.5t168.5 -58.5q104 0 165.5 58.5t92 143.5t40 182.5t9.5 175.5t-9.5 175t-40 182t-92 143.5t-165.5 58.5q-106 0 -168 -58.5t-92.5 -143.5t-39 -182.5t-8.5 -174.5zM748 1606v227h251v-227h-251z" />
<glyph unicode="&#xd7;" horiz-adv-x="1214" d="M123 145l346 361l-346 362l139 129l344 -348l344 348l140 -129l-342 -362l342 -361l-140 -145l-344 358l-350 -358z" />
<glyph unicode="&#xd8;" horiz-adv-x="1327" d="M92 707q0 147 25.5 279t91 232.5t175.5 159t280 58.5q92 0 179 -20.5t161 -74.5l108 166l117 -71l-127 -193q41 -55 66.5 -120.5t41 -135t20.5 -141t5 -139.5q0 -147 -25.5 -279.5t-91 -233t-176.5 -159t-278 -58.5q-86 0 -171 19.5t-157 66.5l-103 -157l-114 71l114 179 q-45 55 -72.5 122.5t-43 139t-20.5 145.5t-5 144zM356 707q0 -78 6.5 -157t26.5 -155l492 754q-78 117 -217 117q-106 0 -168 -58.5t-92.5 -143.5t-39 -182.5t-8.5 -174.5zM457 250q78 -102 207 -103q104 0 165.5 58.5t92 143.5t40 182.5t9.5 175.5q0 72 -6.5 144.5 t-22.5 143.5z" />
<glyph unicode="&#xd9;" horiz-adv-x="1251" d="M135 432v981h240v-981q0 -127 56 -206t196 -79q137 0 193.5 79t56.5 206v981h239v-981q0 -117 -34.5 -203t-98 -142t-154 -83t-202.5 -27q-111 0 -201 28t-154.5 84t-100.5 142t-36 201zM371 1925h245l95 -342h-170z" />
<glyph unicode="&#xda;" horiz-adv-x="1251" d="M135 432v981h240v-981q0 -127 56 -206t196 -79q137 0 193.5 79t56.5 206v981h239v-981q0 -117 -34.5 -203t-98 -142t-154 -83t-202.5 -27q-111 0 -201 28t-154.5 84t-100.5 142t-36 201zM541 1583l94 342h246l-170 -342h-170z" />
<glyph unicode="&#xdb;" horiz-adv-x="1251" d="M135 432v981h240v-981q0 -127 56 -206t196 -79q137 0 193.5 79t56.5 206v981h239v-981q0 -117 -34.5 -203t-98 -142t-154 -83t-202.5 -27q-111 0 -201 28t-154.5 84t-100.5 142t-36 201zM317 1583l199 305h221l199 -305h-166l-143 172l-144 -172h-166z" />
<glyph unicode="&#xdc;" horiz-adv-x="1251" d="M135 432v981h240v-981q0 -127 56 -206t196 -79q137 0 193.5 79t56.5 206v981h239v-981q0 -117 -34.5 -203t-98 -142t-154 -83t-202.5 -27q-111 0 -201 28t-154.5 84t-100.5 142t-36 201zM289 1606v227h252v-227h-252zM711 1606v227h252v-227h-252z" />
<glyph unicode="&#xdd;" horiz-adv-x="1099" d="M-35 1413h273l313 -508l313 508h273l-467 -758v-655h-240v655zM496 1583l94 342h246l-170 -342h-170z" />
<glyph unicode="&#xde;" horiz-adv-x="1251" d="M145 0v1413h240v-246h240q135 0 237.5 -11t171 -55t104.5 -133t36 -243q0 -145 -38 -230t-110 -128t-173 -54.5t-228 -11.5h-240v-301h-240zM385 471h240q72 0 128 10.5t96 39t60.5 77.5t20.5 127q0 84 -17.5 137t-55.5 83t-95 41t-137 11h-240v-526z" />
<glyph unicode="&#xdf;" horiz-adv-x="1099" d="M123 0v938q0 109 18.5 200t64.5 157.5t126 103.5t203 37q82 0 155.5 -22.5t128.5 -68t88 -112t33 -154.5q0 -129 -51 -207.5t-180 -109.5v-4q166 -20 231.5 -121.5t65.5 -261.5q0 -193 -102.5 -295.5t-295.5 -102.5q-43 0 -86 5.5t-84 17.5v133q31 -8 62.5 -16t64.5 -8 q57 0 96 24.5t61.5 63.5t32 88t9.5 98q0 78 -10.5 135t-39 96t-78.5 59.5t-132 24.5v129q59 0 97 17.5t59.5 50.5t29.5 78t8 98q0 39 -7 81t-25.5 76t-50 55.5t-80.5 21.5q-63 0 -100.5 -27t-56 -70t-23.5 -94t-5 -100v-1014h-227z" />
<glyph unicode="&#xe0;" horiz-adv-x="985" d="M92 233q0 111 54.5 175.5t135 97.5t176 43t179.5 14v96q0 35 -5 68t-20.5 57.5t-42 39t-69.5 14.5q-150 0 -150 -150h-221q0 82 29.5 141.5t80 96.5t118 54t143.5 17q78 0 143.5 -15t112.5 -51t72.5 -94.5t25.5 -142.5v-694h-217v113h-4q-39 -76 -106.5 -106t-147.5 -30 q-59 0 -111.5 16.5t-91.5 48.5t-61.5 80t-22.5 111zM238 1487h245l95 -342h-170zM313 254q0 -59 32 -88t89 -29t96 29t62.5 72t34 94t10.5 98q-41 0 -96.5 -7t-106.5 -26.5t-86 -53.5t-35 -89z" />
<glyph unicode="&#xe1;" horiz-adv-x="985" d="M92 233q0 111 54.5 175.5t135 97.5t176 43t179.5 14v96q0 35 -5 68t-20.5 57.5t-42 39t-69.5 14.5q-150 0 -150 -150h-221q0 82 29.5 141.5t80 96.5t118 54t143.5 17q78 0 143.5 -15t112.5 -51t72.5 -94.5t25.5 -142.5v-694h-217v113h-4q-39 -76 -106.5 -106t-147.5 -30 q-59 0 -111.5 16.5t-91.5 48.5t-61.5 80t-22.5 111zM313 254q0 -59 32 -88t89 -29t96 29t62.5 72t34 94t10.5 98q-41 0 -96.5 -7t-106.5 -26.5t-86 -53.5t-35 -89zM408 1145l94 342h246l-170 -342h-170z" />
<glyph unicode="&#xe2;" horiz-adv-x="985" d="M92 233q0 111 54.5 175.5t135 97.5t176 43t179.5 14v96q0 35 -5 68t-20.5 57.5t-42 39t-69.5 14.5q-150 0 -150 -150h-221q0 82 29.5 141.5t80 96.5t118 54t143.5 17q78 0 143.5 -15t112.5 -51t72.5 -94.5t25.5 -142.5v-694h-217v113h-4q-39 -76 -106.5 -106t-147.5 -30 q-59 0 -111.5 16.5t-91.5 48.5t-61.5 80t-22.5 111zM184 1145l199 305h221l199 -305h-166l-143 172l-144 -172h-166zM313 254q0 -59 32 -88t89 -29t96 29t62.5 72t34 94t10.5 98q-41 0 -96.5 -7t-106.5 -26.5t-86 -53.5t-35 -89z" />
<glyph unicode="&#xe3;" horiz-adv-x="985" d="M92 233q0 111 54.5 175.5t135 97.5t176 43t179.5 14v96q0 35 -5 68t-20.5 57.5t-42 39t-69.5 14.5q-150 0 -150 -150h-221q0 82 29.5 141.5t80 96.5t118 54t143.5 17q78 0 143.5 -15t112.5 -51t72.5 -94.5t25.5 -142.5v-694h-217v113h-4q-39 -76 -106.5 -106t-147.5 -30 q-59 0 -111.5 16.5t-91.5 48.5t-61.5 80t-22.5 111zM211 1163q0 39 1 87t13.5 91t41 73t81.5 30q33 0 74 -21.5t80 -46t70.5 -46t48.5 -21.5q14 0 22 14t10 33.5t2 39v29.5h121q0 -31 -1 -61.5t-3 -60.5q-4 -35 -11 -64t-21.5 -50.5t-39 -32.5t-63.5 -11q-41 0 -82 19.5 t-77 43t-64.5 43t-46.5 19.5q-14 0 -21.5 -13.5t-10.5 -31t-3 -36v-26.5h-121zM313 254q0 -59 32 -88t89 -29t96 29t62.5 72t34 94t10.5 98q-41 0 -96.5 -7t-106.5 -26.5t-86 -53.5t-35 -89z" />
<glyph unicode="&#xe4;" horiz-adv-x="985" d="M92 233q0 111 54.5 175.5t135 97.5t176 43t179.5 14v96q0 35 -5 68t-20.5 57.5t-42 39t-69.5 14.5q-150 0 -150 -150h-221q0 82 29.5 141.5t80 96.5t118 54t143.5 17q78 0 143.5 -15t112.5 -51t72.5 -94.5t25.5 -142.5v-694h-217v113h-4q-39 -76 -106.5 -106t-147.5 -30 q-59 0 -111.5 16.5t-91.5 48.5t-61.5 80t-22.5 111zM156 1167v228h252v-228h-252zM313 254q0 -59 32 -88t89 -29t96 29t62.5 72t34 94t10.5 98q-41 0 -96.5 -7t-106.5 -26.5t-86 -53.5t-35 -89zM578 1167v228h251v-228h-251z" />
<glyph unicode="&#xe5;" horiz-adv-x="985" d="M92 233q0 111 54.5 175.5t135 97.5t176 43t179.5 14v96q0 35 -5 68t-20.5 57.5t-42 39t-69.5 14.5q-150 0 -150 -150h-221q0 82 29.5 141.5t80 96.5t118 54t143.5 17q78 0 143.5 -15t112.5 -51t72.5 -94.5t25.5 -142.5v-694h-217v113h-4q-39 -76 -106.5 -106t-147.5 -30 q-59 0 -111.5 16.5t-91.5 48.5t-61.5 80t-22.5 111zM287 1352q0 43 16 79.5t45 65.5t67 45.5t79 16.5q43 0 79.5 -16.5t65.5 -45.5t45 -65.5t16 -79.5q0 -41 -16 -79t-45 -66.5t-65.5 -45t-79.5 -16.5q-41 0 -79 16.5t-67 45t-45 66.5t-16 79zM313 254q0 -59 32 -88t89 -29 t96 29t62.5 72t34 94t10.5 98q-41 0 -96.5 -7t-106.5 -26.5t-86 -53.5t-35 -89zM406 1352q0 -37 25.5 -62.5t62.5 -25.5t62.5 25.5t25.5 62.5t-26 62.5t-62 25.5q-37 0 -62.5 -25.5t-25.5 -62.5z" />
<glyph unicode="&#xe6;" horiz-adv-x="1517" d="M92 256q0 119 51.5 191.5t132 112.5t180 53.5t193.5 13.5q0 45 -3 83t-17.5 66.5t-44 45t-84.5 16.5q-53 0 -97.5 -30t-44.5 -89h-221q2 76 34 128t83 86t114.5 49t131.5 15q76 0 144.5 -23.5t117.5 -84.5q61 57 141 82.5t166 25.5q186 0 277.5 -108.5t91.5 -286.5v-113 h-576q0 -37 10.5 -72.5t24.5 -70.5q45 -104 132 -156.5t200 -52.5q49 0 95 11.5t91 25.5v-158q-129 -39 -272 -39q-119 0 -219.5 45.5t-173.5 139.5q-27 -49 -68 -84t-90 -57.5t-104.5 -33t-108.5 -10.5q-61 0 -113.5 19.5t-91.5 56.5t-60.5 88.5t-21.5 114.5zM313 276 q0 -55 30 -97t91 -42q76 0 119 33t64.5 84t26.5 113.5t5 121.5q-53 0 -112.5 -8t-108.5 -31.5t-82 -64.5t-33 -109zM868 627h357q0 43 -8.5 84t-28 71.5t-52 50t-83.5 19.5q-47 0 -82 -19.5t-57.5 -50t-34 -71.5t-11.5 -84z" />
<glyph unicode="&#xe7;" horiz-adv-x="909" d="M78 530q0 106 28.5 192.5t85 148t139.5 94t193 32.5q180 0 275.5 -88t95.5 -268h-242q0 37 -6 73t-22.5 63.5t-45 44t-73.5 16.5q-53 0 -89 -26t-57.5 -64.5t-31 -86t-9.5 -90.5q0 -92 27 -170.5t77 -137t125 -92.5t173 -34q43 0 83 5t81 20v-139q-135 -45 -285 -46 q-25 0 -48.5 2.5t-45.5 4.5l-27 -117q8 0 14.5 1t14.5 1q84 0 141.5 -50t57.5 -136q0 -104 -69 -156.5t-167 -52.5q-47 0 -80 11t-74 32v129q31 -23 64 -38.5t74 -15.5q39 0 64.5 26t25.5 65q0 31 -13.5 51t-35 33.5t-48 19.5t-53.5 6q-12 0 -25.5 -3t-25.5 -5l51 223 q-160 53 -238.5 188.5t-78.5 333.5z" />
<glyph unicode="&#xe8;" horiz-adv-x="948" d="M82 539q0 102 24.5 187t75.5 145.5t130 93t188 32.5q186 0 278 -108.5t92 -286.5v-55h-577q0 -78 25.5 -151.5t73.5 -131t115.5 -92.5t151.5 -35q47 0 95.5 11.5t91.5 25.5v-158q-129 -39 -273 -39q-131 0 -224 42t-152.5 118t-87 178.5t-27.5 223.5zM240 1487h245 l95 -342h-170zM299 684h356q0 78 -47 123t-125 45q-74 0 -125 -47t-59 -121z" />
<glyph unicode="&#xe9;" horiz-adv-x="948" d="M82 539q0 102 24.5 187t75.5 145.5t130 93t188 32.5q186 0 278 -108.5t92 -286.5v-55h-577q0 -78 25.5 -151.5t73.5 -131t115.5 -92.5t151.5 -35q47 0 95.5 11.5t91.5 25.5v-158q-129 -39 -273 -39q-131 0 -224 42t-152.5 118t-87 178.5t-27.5 223.5zM299 684h356 q0 78 -47 123t-125 45q-74 0 -125 -47t-59 -121zM410 1145l94 342h246l-170 -342h-170z" />
<glyph unicode="&#xea;" horiz-adv-x="948" d="M82 539q0 102 24.5 187t75.5 145.5t130 93t188 32.5q186 0 278 -108.5t92 -286.5v-55h-577q0 -78 25.5 -151.5t73.5 -131t115.5 -92.5t151.5 -35q47 0 95.5 11.5t91.5 25.5v-158q-129 -39 -273 -39q-131 0 -224 42t-152.5 118t-87 178.5t-27.5 223.5zM166 1145l199 305 h221l198 -305h-166l-143 172l-143 -172h-166zM299 684h356q0 78 -47 123t-125 45q-74 0 -125 -47t-59 -121z" />
<glyph unicode="&#xeb;" horiz-adv-x="948" d="M82 539q0 102 24.5 187t75.5 145.5t130 93t188 32.5q186 0 278 -108.5t92 -286.5v-55h-577q0 -78 25.5 -151.5t73.5 -131t115.5 -92.5t151.5 -35q47 0 95.5 11.5t91.5 25.5v-158q-129 -39 -273 -39q-131 0 -224 42t-152.5 118t-87 178.5t-27.5 223.5zM137 1167v228h252 v-228h-252zM299 684h356q0 78 -47 123t-125 45q-74 0 -125 -47t-59 -121zM559 1167v228h252v-228h-252z" />
<glyph unicode="&#xec;" horiz-adv-x="530" d="M10 1487h246l94 -342h-170zM152 0v975h227v-975h-227z" />
<glyph unicode="&#xed;" horiz-adv-x="530" d="M152 0v975h227v-975h-227zM180 1145l94 342h246l-170 -342h-170z" />
<glyph unicode="&#xee;" horiz-adv-x="530" d="M-43 1145l199 305h221l198 -305h-165l-144 172l-143 -172h-166zM152 0v975h227v-975h-227z" />
<glyph unicode="&#xef;" horiz-adv-x="530" d="M-72 1167v228h252v-228h-252zM152 0v975h227v-975h-227zM350 1167v228h252v-228h-252z" />
<glyph unicode="&#xf0;" d="M82 487q0 98 19.5 190.5t65.5 163t122 113.5t190 43q47 0 82 -10t72 -37l4 4q-33 43 -64.5 83t-74.5 75l-217 -74l-33 95l153 53q-55 31 -109 59.5t-114 48.5v6h342l76 -49l168 58l33 -99l-111 -36q129 -143 192.5 -318.5t63.5 -368.5q0 -106 -23.5 -199t-75.5 -162 t-133 -109t-198 -40t-198 40t-133 109t-75.5 162t-23.5 199zM324 487q0 -49 4 -110.5t22.5 -114.5t56 -89t105.5 -36t105.5 36t56 89t22.5 114.5t4 110.5q0 51 -4 111.5t-22.5 114t-56 89.5t-105.5 36t-105.5 -36t-56 -89.5t-22.5 -113.5t-4 -112z" />
<glyph unicode="&#xf1;" horiz-adv-x="1062" d="M141 0v975h228v-182h4q39 94 110.5 149t178.5 55q70 0 119.5 -26.5t81.5 -71.5t47.5 -102.5t15.5 -120.5v-676h-228v557v48t-3 60.5t-10 58.5t-21 42q-12 12 -31 15t-35 3q-61 0 -105 -37.5t-72 -94t-40 -119t-12 -111.5v-422h-228zM250 1163q0 39 1 87t13 91t41 73 t82 30q33 0 74 -21.5t80 -46t70.5 -46t47.5 -21.5q14 0 22.5 14t10.5 33.5t2 39v29.5h121q0 -31 -1 -61.5t-3 -60.5q-4 -70 -30.5 -114t-104.5 -44q-41 0 -81 19.5t-77 43t-65.5 43t-46.5 19.5q-14 0 -21.5 -13.5t-10.5 -31t-3 -36v-26.5h-121z" />
<glyph unicode="&#xf2;" d="M82 487q0 106 23.5 198.5t75.5 162.5t133 109.5t198 39.5t198 -39.5t133 -109.5t75.5 -162.5t23.5 -198.5t-23.5 -199t-75.5 -162t-133 -109t-198 -40t-198 40t-133 109t-75.5 162t-23.5 199zM256 1487h246l94 -342h-170zM324 487q0 -49 4 -110.5t22.5 -114.5t56 -89 t105.5 -36t105.5 36t56 89t22.5 114.5t4 110.5q0 51 -4 111.5t-22.5 114t-56 89.5t-105.5 36t-105.5 -36t-56 -89.5t-22.5 -113.5t-4 -112z" />
<glyph unicode="&#xf3;" d="M82 487q0 106 23.5 198.5t75.5 162.5t133 109.5t198 39.5t198 -39.5t133 -109.5t75.5 -162.5t23.5 -198.5t-23.5 -199t-75.5 -162t-133 -109t-198 -40t-198 40t-133 109t-75.5 162t-23.5 199zM324 487q0 -49 4 -110.5t22.5 -114.5t56 -89t105.5 -36t105.5 36t56 89 t22.5 114.5t4 110.5q0 51 -4 111.5t-22.5 114t-56 89.5t-105.5 36t-105.5 -36t-56 -89.5t-22.5 -113.5t-4 -112zM426 1145l94 342h246l-170 -342h-170z" />
<glyph unicode="&#xf4;" d="M82 487q0 106 23.5 198.5t75.5 162.5t133 109.5t198 39.5t198 -39.5t133 -109.5t75.5 -162.5t23.5 -198.5t-23.5 -199t-75.5 -162t-133 -109t-198 -40t-198 40t-133 109t-75.5 162t-23.5 199zM203 1145l198 305h222l198 -305h-166l-143 172l-143 -172h-166zM324 487 q0 -49 4 -110.5t22.5 -114.5t56 -89t105.5 -36t105.5 36t56 89t22.5 114.5t4 110.5q0 51 -4 111.5t-22.5 114t-56 89.5t-105.5 36t-105.5 -36t-56 -89.5t-22.5 -113.5t-4 -112z" />
<glyph unicode="&#xf5;" d="M82 487q0 106 23.5 198.5t75.5 162.5t133 109.5t198 39.5t198 -39.5t133 -109.5t75.5 -162.5t23.5 -198.5t-23.5 -199t-75.5 -162t-133 -109t-198 -40t-198 40t-133 109t-75.5 162t-23.5 199zM229 1163q0 39 1 87t13.5 91t41 73t82.5 30q33 0 73.5 -21.5t79.5 -46t72 -46 t47 -21.5q16 0 23.5 14t10.5 33.5t2 39t-1 29.5h121v-61.5t-4 -60.5q-4 -70 -32 -114t-104 -44q-41 0 -82 19.5t-76.5 43t-64.5 43t-47 19.5q-16 0 -23.5 -13.5t-10.5 -31t-2 -36t1 -26.5h-121zM324 487q0 -49 4 -110.5t22.5 -114.5t56 -89t105.5 -36t105.5 36t56 89 t22.5 114.5t4 110.5q0 51 -4 111.5t-22.5 114t-56 89.5t-105.5 36t-105.5 -36t-56 -89.5t-22.5 -113.5t-4 -112z" />
<glyph unicode="&#xf6;" d="M82 487q0 106 23.5 198.5t75.5 162.5t133 109.5t198 39.5t198 -39.5t133 -109.5t75.5 -162.5t23.5 -198.5t-23.5 -199t-75.5 -162t-133 -109t-198 -40t-198 40t-133 109t-75.5 162t-23.5 199zM174 1167v228h252v-228h-252zM324 487q0 -49 4 -110.5t22.5 -114.5t56 -89 t105.5 -36t105.5 36t56 89t22.5 114.5t4 110.5q0 51 -4 111.5t-22.5 114t-56 89.5t-105.5 36t-105.5 -36t-56 -89.5t-22.5 -113.5t-4 -112zM596 1167v228h252v-228h-252z" />
<glyph unicode="&#xf7;" horiz-adv-x="1124" d="M76 430v184h973v-184h-973zM442 0v240h240v-240h-240zM442 805v239h240v-239h-240z" />
<glyph unicode="&#xf8;" d="M82 -53l111 164q-66 78 -88.5 178t-22.5 198q0 106 23.5 198.5t75.5 162.5t133 109.5t198 39.5q63 0 124.5 -14t115.5 -49l104 149l88 -61l-110 -162q61 -78 84.5 -177t23.5 -196q0 -106 -23.5 -199t-75.5 -162t-133 -109t-198 -40q-61 0 -122.5 14.5t-115.5 47.5 l-104 -154zM324 487q0 -86 12 -168l309 455q-23 35 -57.5 49.5t-75.5 14.5q-68 0 -105.5 -36t-56 -89.5t-22.5 -113.5t-4 -112zM381 195q25 -31 58.5 -44.5t72.5 -13.5q68 0 105.5 36t56 89t22.5 114.5t4 110.5q0 41 -2 81t-8 81z" />
<glyph unicode="&#xf9;" horiz-adv-x="1062" d="M139 299v676h228v-557v-46t2 -61.5t9 -60.5t23 -41q12 -12 31 -15.5t35 -3.5q61 0 104 38t71 94.5t41 119t13 111.5v422h228v-975h-228v182h-4q-37 -94 -110.5 -149.5t-178.5 -55.5q-70 0 -120 27t-81.5 71t-47 102.5t-15.5 121.5zM276 1487h246l94 -342h-170z" />
<glyph unicode="&#xfa;" horiz-adv-x="1062" d="M139 299v676h228v-557v-46t2 -61.5t9 -60.5t23 -41q12 -12 31 -15.5t35 -3.5q61 0 104 38t71 94.5t41 119t13 111.5v422h228v-975h-228v182h-4q-37 -94 -110.5 -149.5t-178.5 -55.5q-70 0 -120 27t-81.5 71t-47 102.5t-15.5 121.5zM446 1145l95 342h245l-170 -342h-170z " />
<glyph unicode="&#xfb;" horiz-adv-x="1062" d="M139 299v676h228v-557v-46t2 -61.5t9 -60.5t23 -41q12 -12 31 -15.5t35 -3.5q61 0 104 38t71 94.5t41 119t13 111.5v422h228v-975h-228v182h-4q-37 -94 -110.5 -149.5t-178.5 -55.5q-70 0 -120 27t-81.5 71t-47 102.5t-15.5 121.5zM223 1145l199 305h221l199 -305h-166 l-144 172l-143 -172h-166z" />
<glyph unicode="&#xfc;" horiz-adv-x="1062" d="M139 299v676h228v-557v-46t2 -61.5t9 -60.5t23 -41q12 -12 31 -15.5t35 -3.5q61 0 104 38t71 94.5t41 119t13 111.5v422h228v-975h-228v182h-4q-37 -94 -110.5 -149.5t-178.5 -55.5q-70 0 -120 27t-81.5 71t-47 102.5t-15.5 121.5zM195 1167v228h251v-228h-251zM616 1167 v228h252v-228h-252z" />
<glyph unicode="&#xfd;" horiz-adv-x="909" d="M-2 975h238l225 -658h4l211 658h237l-485 -1413h-209l139 426zM389 1145l94 342h246l-170 -342h-170z" />
<glyph unicode="&#xfe;" d="M135 -438v1851h227v-573h5q14 33 40.5 61.5t59.5 50t69.5 33.5t71.5 12q106 0 172 -48t103 -122.5t49 -165t12 -174.5q0 -82 -14.5 -172t-52 -164.5t-103 -124t-166.5 -49.5q-78 0 -139 37t-102 103h-5v-555h-227zM362 487q0 -41 5.5 -98t22 -109.5t50 -89t92.5 -36.5 q61 0 96.5 35.5t51.5 87t19 108.5t3 102q0 43 -4 100.5t-21.5 110t-51 88t-93.5 35.5q-55 0 -87.5 -38t-51 -90t-25 -109.5t-6.5 -96.5z" />
<glyph unicode="&#xff;" horiz-adv-x="909" d="M-2 975h238l225 -658h4l211 658h237l-485 -1413h-209l139 426zM117 1167v228h252v-228h-252zM539 1167v228h252v-228h-252z" />
<glyph unicode="&#x152;" horiz-adv-x="1896" d="M94 707q0 147 25.5 279t91 232.5t175.5 159t280 58.5q92 0 179 -52.5t136 -126.5h4v156h827v-182h-587v-408h557v-182h-557v-459h604v-182h-844v160h-4q-23 -37 -58.5 -71t-77.5 -58.5t-88 -39t-91 -14.5q-170 0 -280 58.5t-175.5 159t-91 232.5t-25.5 280zM358 707 q0 -78 8.5 -175.5t39 -182.5t92 -143.5t168.5 -58.5q106 0 167.5 58.5t92 143.5t39 182.5t8.5 175.5t-8.5 175t-39 182t-92 143.5t-167.5 58.5t-168 -58.5t-92.5 -143.5t-39 -182.5t-8.5 -174.5z" />
<glyph unicode="&#x153;" horiz-adv-x="1593" d="M82 487q0 106 23.5 198.5t75.5 162.5t133 109.5t198 39.5q88 0 171 -28.5t142 -96.5q63 63 147.5 94t172.5 31q186 0 278.5 -108.5t92.5 -286.5v-113h-576q0 -35 8 -69.5t23 -65.5q47 -106 133 -161.5t203 -55.5q49 0 95 11.5t91 25.5v-158q-129 -39 -272 -39 q-111 0 -204 36t-163 122q-59 -86 -149.5 -122t-192.5 -36q-117 0 -198 40t-133 109t-75.5 162t-23.5 199zM324 487q0 -49 4 -110.5t22.5 -114.5t56 -89t105.5 -36t105.5 36t56 89t22.5 114.5t4 110.5q0 51 -4 111.5t-22.5 114t-56 89.5t-105.5 36t-105.5 -36t-56 -89.5 t-22.5 -113.5t-4 -112zM946 627h357q0 43 -8.5 84t-29 71.5t-54 50t-83.5 19.5q-49 0 -82.5 -19.5t-56 -51t-33 -71.5t-10.5 -83z" />
<glyph unicode="&#x178;" horiz-adv-x="1099" d="M-35 1413h273l313 -508l313 508h273l-467 -758v-655h-240v655zM213 1606v227h252v-227h-252zM635 1606v227h252v-227h-252z" />
<glyph unicode="&#x2c6;" horiz-adv-x="675" d="M29 1145l198 305h222l198 -305h-166l-143 172l-143 -172h-166z" />
<glyph unicode="&#x2dc;" horiz-adv-x="675" d="M55 1163q0 39 1 87t13.5 91t41 73t82.5 30q33 0 73.5 -21.5t79.5 -46t72 -46t47 -21.5q16 0 23.5 14t10.5 33.5t2 39t-1 29.5h121v-61.5t-5 -60.5q-4 -35 -11 -64t-21.5 -50.5t-39 -32.5t-63.5 -11q-41 0 -82 19.5t-76.5 43t-64.5 43t-47 19.5q-16 0 -23.5 -13.5 t-10.5 -31t-2 -36t1 -26.5h-121z" />
<glyph unicode="&#x2000;" horiz-adv-x="998" />
<glyph unicode="&#x2001;" horiz-adv-x="1997" />
<glyph unicode="&#x2002;" horiz-adv-x="998" />
<glyph unicode="&#x2003;" horiz-adv-x="1997" />
<glyph unicode="&#x2004;" horiz-adv-x="665" />
<glyph unicode="&#x2005;" horiz-adv-x="499" />
<glyph unicode="&#x2006;" horiz-adv-x="332" />
<glyph unicode="&#x2007;" horiz-adv-x="332" />
<glyph unicode="&#x2008;" horiz-adv-x="249" />
<glyph unicode="&#x2009;" horiz-adv-x="399" />
<glyph unicode="&#x200a;" horiz-adv-x="110" />
<glyph unicode="&#x2010;" horiz-adv-x="948" d="M94 418v221h762v-221h-762z" />
<glyph unicode="&#x2011;" horiz-adv-x="948" d="M94 418v221h762v-221h-762z" />
<glyph unicode="&#x2012;" horiz-adv-x="948" d="M94 418v221h762v-221h-762z" />
<glyph unicode="&#x2013;" horiz-adv-x="1138" d="M94 418v221h950v-221h-950z" />
<glyph unicode="&#x2014;" horiz-adv-x="1478" d="M92 418v221h1294v-221h-1294z" />
<glyph unicode="&#x2018;" horiz-adv-x="493" d="M104 928l80 485h195l-19 -485h-256z" />
<glyph unicode="&#x2019;" horiz-adv-x="493" d="M115 928l18 485h256l-80 -485h-194z" />
<glyph unicode="&#x201a;" horiz-adv-x="493" d="M115 -205l18 486h256l-80 -486h-194z" />
<glyph unicode="&#x201c;" horiz-adv-x="872" d="M104 928l80 485h195l-19 -485h-256zM481 928l80 485h195l-19 -485h-256z" />
<glyph unicode="&#x201d;" horiz-adv-x="872" d="M115 928l18 485h256l-80 -485h-194zM492 928l18 485h256l-80 -485h-194z" />
<glyph unicode="&#x201e;" horiz-adv-x="872" d="M115 -205l18 486h256l-80 -486h-194zM492 -205l18 486h256l-80 -486h-194z" />
<glyph unicode="&#x2022;" horiz-adv-x="1138" d="M199 705q0 76 28.5 144.5t79.5 118.5t118 79.5t144 29.5q76 0 143.5 -29.5t119 -79.5t80 -118.5t28.5 -144.5t-29.5 -142.5t-80 -117t-118 -80t-143.5 -29.5t-143.5 29.5t-117.5 80t-79.5 117t-29.5 142.5z" />
<glyph unicode="&#x2026;" horiz-adv-x="1478" d="M127 0v240h240v-240h-240zM621 0v240h239v-240h-239zM1114 0v240h240v-240h-240z" />
<glyph unicode="&#x202f;" horiz-adv-x="399" />
<glyph unicode="&#x2039;" horiz-adv-x="493" d="M63 518l146 395h211l-129 -395l129 -395h-211z" />
<glyph unicode="&#x203a;" horiz-adv-x="493" d="M76 123l129 395l-129 395h211l145 -395l-145 -395h-211z" />
<glyph unicode="&#x205f;" horiz-adv-x="499" />
<glyph unicode="&#x20ac;" horiz-adv-x="1175" d="M47 506l21 110h186q-2 20 -2 35v37v29v10h-162l21 113h147q27 260 150.5 392t341.5 132q195 0 301 -102.5t110 -286.5h-268q-2 123 -39 173t-113 50q-193 0 -231 -358h367l-21 -113h-350v-10q0 -20 1 -41t1 -47v-13h326l-23 -110h-289q29 -180 100.5 -264t194.5 -84 q72 0 142.5 23.5t152.5 74.5v-201q-98 -41 -179 -59.5t-159 -18.5q-217 0 -350 135.5t-162 393.5h-215z" />
<glyph unicode="&#x2122;" horiz-adv-x="1251" d="M66 1327v86h389v-86h-150v-508h-90v508h-149zM522 819v594h164l98 -467h4l101 467h164v-594h-90v537h-5l-116 -537h-109l-117 537h-4v-537h-90z" />
<glyph unicode="&#xe000;" horiz-adv-x="972" d="M0 0v973h973v-973h-973z" />
<glyph unicode="&#xfb01;" horiz-adv-x="1251" d="M45 817v158h178v133q0 88 29 150.5t79 102.5t118.5 57.5t150.5 17.5q53 0 107.5 -4.5t105.5 -16.5v-174q-37 16 -82 25.5t-84 9.5q-72 0 -111.5 -25.5t-58 -68.5t-22.5 -97.5t-4 -109.5h286v-158h-286v-817h-228v817h-178zM874 0v975h228v-975h-228zM874 1188v225h228 v-225h-228z" />
<glyph unicode="&#xfb02;" horiz-adv-x="1251" d="M45 817v158h178v133q0 86 26.5 148.5t76 102.5t117 58.5t147.5 18.5q57 0 114.5 -4.5t112.5 -16.5v-174q-88 35 -180 35q-70 0 -107.5 -27.5t-55 -70.5t-20.5 -96.5t-3 -106.5h286v-158h-286v-817h-228v817h-178zM874 0v1413h228v-1413h-228z" />
</font>
</defs>
</svg>
